<svg width="107" height="30" viewBox="0 0 107 30" fill="none" xmlns="http://www.w3.org/2000/svg">
<g opacity="0.5" clip-path="url(#clip0_389_34)">
<path fill-rule="evenodd" clip-rule="evenodd" d="M17.8022 7.63087C17.4747 7.63087 17.1519 7.48286 16.9396 7.20108C14.5248 3.99566 10.8345 2.15742 6.815 2.15742C5.6614 2.15742 4.5228 2.31297 3.4206 2.6207C3.1582 3.25276 2.5351 3.69732 1.8082 3.69732C0.84427 3.69732 0.0629997 2.91585 0.0629997 1.95199C0.0629997 0.988137 0.84427 0.206668 1.8082 0.206668C2.1937 0.206668 2.55 0.331684 2.8388 0.543384C4.1303 0.182655 5.4643 0 6.815 0C11.5181 0 15.8363 2.15167 18.6628 5.90338C19.0209 6.37891 18.9261 7.05523 18.45 7.41396C18.2557 7.56024 18.0282 7.63087 17.8022 7.63087ZM-2.99082 25.9342C-6.17583 23.121 -8 19.0749 -8 14.8173C-8 12.8258 -7.60232 10.8791 -6.8176 9.03141C-6.58474 8.48425 -5.95391 8.22664 -5.40306 8.46052C-4.85479 8.69325 -4.59935 9.32685 -4.83206 9.87516C-5.50258 11.4544 -5.84274 13.1171 -5.84274 14.8173C-5.84274 18.4217 -4.31337 21.8482 -1.63996 24.249C-1.5133 24.2198 -1.38137 24.2043 -1.24583 24.2043C-0.2819 24.2043 0.49937 24.9858 0.49937 25.9496C0.49937 26.9135 -0.2819 27.695 -1.24583 27.695C-2.20962 27.695 -2.99089 26.9135 -2.99089 25.9496L-2.99082 25.9342ZM7.9101 28.5668C7.9942 29.0981 8.4529 29.4768 8.9739 29.4768C9.0302 29.4768 9.0872 29.4727 9.144 29.4637C15.4083 28.4713 20.3074 23.6568 21.4177 17.4394C21.9523 17.1411 22.3139 16.5699 22.3139 15.9143C22.3139 14.9503 21.5325 14.1689 20.5687 14.1689C19.6049 14.1689 18.8235 14.9503 18.8235 15.9143C18.8235 16.3718 18.9995 16.7882 19.2876 17.0994C18.3247 22.3918 14.1461 26.4872 8.8069 27.3328C8.2186 27.4258 7.8168 27.9785 7.9101 28.5668ZM9.939 15.0976L9.9256 15.0924C9.8113 16.5951 8.5657 17.7868 7.0341 17.7868C5.4277 17.7868 4.1207 16.4797 4.1207 14.8733C4.1207 14.1629 4.3864 13.5197 4.8104 13.0135L1.35667 9.31832C-0.0469398 10.7528 -0.91609 12.7125 -0.91609 14.8733C-0.91609 19.2572 2.6504 22.8239 7.0341 22.8239C11.4181 22.8239 14.9844 19.2572 14.9844 14.8733C14.9844 14.5426 14.9578 14.2186 14.9184 13.8984L9.939 15.0976ZM7.0341 14.8734L1.65176 9.03892C3.0695 7.72985 4.9571 6.92264 7.0343 6.92264C10.797 6.92264 13.9506 9.55342 14.7704 13.0704L7.0341 14.8734ZM35.5722 13.4229C35.5722 15.6185 34.3117 16.8786 32.7845 16.8786C31.0084 16.8786 30.0543 15.1601 30.0543 13.4416C30.0543 10.9788 31.3907 9.96666 32.8418 9.96666C34.445 9.96666 35.5722 11.3222 35.5722 13.4229ZM29.9585 8.5728H28.2593V22.0534H30.1115V17.7188C30.1115 17.2225 30.073 16.8787 30.073 16.8787H30.1115C30.1115 16.8787 30.9512 18.4638 33.0711 18.4638C35.5911 18.4638 37.4433 16.478 37.4433 13.4037C37.4433 10.406 35.8015 8.34366 33.2044 8.34366C30.7793 8.34366 29.9585 10.1002 29.9585 10.1002H29.92C29.92 10.1002 29.9585 9.77557 29.9585 9.39382V8.5728ZM46.1715 12.2769C46.1143 10.6157 45.0829 9.81393 43.8422 9.81393C42.4296 9.81393 41.2838 10.6922 41.016 12.2769H46.1715ZM43.8798 8.34348C46.6102 8.34348 48.0613 10.3677 48.0613 12.869C48.0613 13.117 48.0039 13.6708 48.0039 13.6708H40.9588C41.0546 15.7902 42.5631 16.8597 44.2808 16.8597C45.9423 16.8597 47.1456 15.733 47.1456 15.733L47.9091 17.0889C47.9091 17.0889 46.4768 18.4636 44.1663 18.4636C41.1307 18.4636 39.0492 16.2675 39.0492 13.4035C39.0492 10.3292 41.1307 8.34348 43.8798 8.34348ZM49.4581 10.196H50.7186V14.7023C50.7186 17.9293 53.1812 18.311 54.422 18.311C54.8043 18.311 55.0721 18.2724 55.0721 18.2724V16.6305C55.0721 16.6305 54.9001 16.6687 54.6324 16.6687C53.9261 16.6687 52.5708 16.4207 52.5708 14.4918V10.196H54.9001V8.70668H52.5708V5.91882H50.7759V8.70668H49.4581V10.196ZM57.1543 8.57271H58.9491V10.2532C58.9491 10.6537 58.9107 10.9788 58.9107 10.9788H58.9491C59.3878 9.56547 60.5148 8.45807 62.0036 8.45807C62.2525 8.45807 62.4806 8.49619 62.4806 8.49619V10.3291C62.4806 10.3291 62.2328 10.2719 61.9462 10.2719C60.7629 10.2719 59.6743 11.1122 59.2357 12.5441C59.0637 13.0977 59.0065 13.69 59.0065 14.2818V18.2343H57.1543V8.57271ZM66.1683 18.2344H64.3161V8.57279H66.1683V18.2344ZM66.1683 6.64441H64.2974V4.7541H66.1683V6.64441ZM73.5582 8.34366C75.9833 8.34366 77.1857 9.75687 77.1857 9.75687L76.3073 11.055C76.3073 11.055 75.2771 9.94745 73.6343 9.94745C71.6873 9.94745 70.2748 11.3988 70.2748 13.3844C70.2748 15.3513 71.6873 16.8598 73.6917 16.8598C75.4865 16.8598 76.6709 15.5613 76.6709 15.5613L77.4147 16.9171C77.4147 16.9171 76.0782 18.4636 73.5582 18.4636C70.5228 18.4636 68.3839 16.3061 68.3839 13.4037C68.3839 10.5398 70.5228 8.34366 73.5582 8.34366ZM87.3464 13.3843C87.3464 15.4085 85.8577 16.8597 84.0243 16.8597C82.2108 16.8597 80.7022 15.4085 80.7022 13.3843C80.7022 11.3793 82.2108 9.94728 84.0243 9.94728C85.8577 9.94728 87.3464 11.3793 87.3464 13.3843ZM89.2372 13.3844C89.2372 10.4631 86.908 8.34366 84.0244 8.34366C81.142 8.34366 78.8127 10.4631 78.8127 13.3844C78.8127 16.3249 81.142 18.4636 84.0244 18.4636C86.908 18.4636 89.2372 16.3249 89.2372 13.3844ZM91.4361 8.57271H93.231V10.2532C93.231 10.6537 93.192 10.9788 93.192 10.9788H93.231C93.669 9.56547 94.797 8.45807 96.285 8.45807C96.534 8.45807 96.762 8.49619 96.762 8.49619V10.3291C96.762 10.3291 96.515 10.2719 96.228 10.2719C95.045 10.2719 93.956 11.1122 93.517 12.5441C93.345 13.0977 93.288 13.69 93.288 14.2818V18.2343H91.4361V8.57271ZM102.665 9.81393C103.905 9.81393 104.937 10.6157 104.994 12.2769H99.838C100.106 10.6922 101.252 9.81393 102.665 9.81393ZM106.884 12.869C106.884 10.3677 105.433 8.34348 102.702 8.34348C99.953 8.34348 97.872 10.3292 97.872 13.4035C97.872 16.2675 99.953 18.4636 102.989 18.4636C105.299 18.4636 106.731 17.0889 106.731 17.0889L105.968 15.733C105.968 15.733 104.765 16.8597 103.103 16.8597C101.385 16.8597 99.877 15.7902 99.781 13.6708H106.826C106.826 13.6708 106.884 13.117 106.884 12.869Z" fill="#14161B"/>
</g>
<defs>
<clipPath id="clip0_389_34">
<rect width="115" height="30" fill="white" transform="translate(-8)"/>
</clipPath>
</defs>
</svg>
