<svg xmlns="http://www.w3.org/2000/svg" viewBox="0 0 152.54 27.66"><defs><style>.cls-1{fill:#14161b;}</style></defs><g id="Layer_2" data-name="Layer 2"><g id="Layer_1-2" data-name="Layer 1"><path class="cls-1" d="M10.64,27.66A12.48,12.48,0,0,1,3.91,26,9.66,9.66,0,0,1,0,21.09l5.24-3a5.65,5.65,0,0,0,5.59,3.69c2.41,0,3.61-.73,3.61-2.17a1.94,1.94,0,0,0-1.18-1.82,18.68,18.68,0,0,0-4.33-1.56,16.06,16.06,0,0,1-5.4-2.51A6.8,6.8,0,0,1,1.1,8.09,7.34,7.34,0,0,1,3.72,2.2,9.59,9.59,0,0,1,10,0a10.71,10.71,0,0,1,5.78,1.56,10.4,10.4,0,0,1,4,4.44L14.63,9A4.79,4.79,0,0,0,10,5.93a3.43,3.43,0,0,0-2.09.57,1.75,1.75,0,0,0-.76,1.44,2.21,2.21,0,0,0,.91,1.71A12.89,12.89,0,0,0,12,11.25l2.47.8a11.47,11.47,0,0,1,2.2,1,6.59,6.59,0,0,1,2.06,1.48,7,7,0,0,1,1.82,4.94,7.37,7.37,0,0,1-2.74,6A11.17,11.17,0,0,1,10.64,27.66ZM34,16.57v4.71H44.59v5.85H27.87V.53H44.4V6.38H34v4.41h9.5v5.78Zm40.88,7.1a14,14,0,0,1-19.6,0,13.29,13.29,0,0,1-4-9.84,13.29,13.29,0,0,1,4-9.84,14,14,0,0,1,19.6,0,13.29,13.29,0,0,1,4,9.84A13.29,13.29,0,0,1,74.83,23.67ZM57.28,13.83a7.71,7.71,0,0,0,2.2,5.7,8,8,0,0,0,11.06,0,7.72,7.72,0,0,0,2.24-5.7,7.76,7.76,0,0,0-2.24-5.7,8.05,8.05,0,0,0-11.06,0A7.71,7.71,0,0,0,57.28,13.83Z"/><path class="cls-1" d="M100.39,10a4.42,4.42,0,0,1-6.18,0A4.24,4.24,0,0,1,93,6.93,4.32,4.32,0,0,1,97.3,2.58a4.17,4.17,0,0,1,3.09,1.27,4.17,4.17,0,0,1,1.27,3.08A4.21,4.21,0,0,1,100.39,10Zm-5.21-.94a2.91,2.91,0,0,0,2.12.85,2.88,2.88,0,0,0,2.12-.85,2.93,2.93,0,0,0,.86-2.16,2.92,2.92,0,0,0-.86-2.15,3,3,0,0,0-5.09,2.15A3,3,0,0,0,95.18,9.09Zm11.74-6.36H110a2.69,2.69,0,0,1,2,.79,2.66,2.66,0,0,1,.81,2,2.67,2.67,0,0,1-.81,2,2.65,2.65,0,0,1-2,.79H108.3v2.88h-1.38ZM108.3,7H110a1.35,1.35,0,0,0,1-.41,1.46,1.46,0,0,0,.4-1.06,1.41,1.41,0,0,0-.4-1A1.32,1.32,0,0,0,110,4H108.3Zm8.86-4.23h6.12V4.05h-2.36v7.08h-1.38V4.05h-2.38Zm11.14,8.4V2.73h1.38v8.4Zm13.62-8.4h1.48v8.4H142v-6l-2.56,4.23h-.16l-2.56-4.24v6h-1.38V2.73h1.49l2.53,4.2Zm7.15,8.4V2.73h1.38v8.4Zm-50.6,7.74L94.7,24.81h3.86v1.32H93V25l3.77-5.94H93.07V17.73h5.4Zm12.26,7.26h-1.49l-.59-1.69h-3.58l-.58,1.69H103l3-8.4h1.66Zm-3.87-6.78-1.33,3.79h2.66Zm7.51-1.62h6.12v1.32h-2.36v7.08h-1.38V19.05h-2.38Zm11.14,8.4v-8.4h1.38v8.4ZM139.59,25a4.19,4.19,0,0,1-3.08,1.26,4.3,4.3,0,0,1-4.36-4.36,4.36,4.36,0,1,1,7.44,3.1Zm-5.21-.94a2.93,2.93,0,0,0,2.13.85,2.86,2.86,0,0,0,2.11-.85,3.13,3.13,0,0,0,0-4.31,2.87,2.87,0,0,0-2.11-.86,3.06,3.06,0,0,0-2.13,5.17Zm16.78-.66v-5.7h1.38v8.4h-1.08l-4-5.7v5.7h-1.38v-8.4h1.08Z"/></g></g></svg>