<svg xmlns="http://www.w3.org/2000/svg" viewBox="0 0 165.9 35.31"><defs><style>.cls-1,.cls-2{fill:#14161b;}.cls-1{fill-rule:evenodd;}</style></defs><g id="Layer_2" data-name="Layer 2"><g id="Layer_1-2" data-name="Layer 1"><path class="cls-1" d="M50.36,16.69a27.25,27.25,0,0,1,0,18.62l-9-3.84A12.23,12.23,0,0,0,42.42,26a12.23,12.23,0,0,0-1.09-5.47Z"/><path class="cls-1" d="M36.67,2.19A27.84,27.84,0,0,1,49.81,15.33l-9,3.83v-.55L46.25,12l-7.39,3.83a17,17,0,0,0-6-4.65Z"/><path class="cls-1" d="M10.67,20.53A12.23,12.23,0,0,0,9.58,26a12.23,12.23,0,0,0,1.09,5.47l-9,3.84a27.25,27.25,0,0,1,0-18.62Z"/><path class="cls-1" d="M19.16,11.22a16,16,0,0,0-7.94,7.94l-9-3.83A27.84,27.84,0,0,1,15.33,2.19Z"/><path class="cls-1" d="M26,0a26.84,26.84,0,0,1,9.31,1.64l-3.84,9A12.23,12.23,0,0,0,26,9.58a12.23,12.23,0,0,0-5.47,1.09l-3.84-9A26.84,26.84,0,0,1,26,0Z"/><path class="cls-1" d="M42.69,14.78,36.4,22.44c-2.19,2.47-4.38,4.93-6.29,7.39-4.38,6-12.32-1.64-4.93-5.75l8.76-4.65ZM26,26a2.16,2.16,0,0,1,2.19,2.19,2.2,2.2,0,1,1-4.38,0A2.16,2.16,0,0,1,26,26Z"/><path class="cls-2" d="M70.38,16.32a.74.74,0,0,1-.6-.16.65.65,0,0,1-.23-.54c0-.79,0-2-.09-3.62s-.12-2.83-.16-4a1,1,0,0,1,.27-.68A1.14,1.14,0,0,1,70.22,7a.77.77,0,0,1,.65.13.69.69,0,0,1,.28.57c0,1,.11,2.63.19,5Q72.9,10,74.45,7.54a1.12,1.12,0,0,1,.41-.4A1.19,1.19,0,0,1,75.41,7a.76.76,0,0,1,.53.2c.15.12.22.54.22,1.25L76.53,11l.18,1.7c.11-.21.46-1,1-2.19s1.07-2.24,1.47-3a1.2,1.2,0,0,1,.54-.53A1,1,0,0,1,80.47,7a.68.68,0,0,1,.45.44.85.85,0,0,1-.06.69c-.4.72-.84,1.58-1.3,2.59s-.76,1.64-.9,1.91l-.79,1.55-.74,1.47a1.26,1.26,0,0,1-.41.45,1.14,1.14,0,0,1-.53.21.82.82,0,0,1-.64-.07.62.62,0,0,1-.32-.48c-.22-1.24-.41-2.63-.56-4.14,0-.26-.07-.6-.13-1l-3.06,5.14a1.23,1.23,0,0,1-.49.47A1,1,0,0,1,70.38,16.32Zm16.59,0c-1.28,0-3,0-5.24,0a.72.72,0,0,1-.44-.14.87.87,0,0,1-.25-.38.8.8,0,0,1,0-.51c.07-.3.33-1.52.77-3.66.32-1.56.62-2.79.9-3.68a1,1,0,0,1,.14-.31,1.18,1.18,0,0,1,1-.6h2.56l2.56,0a.72.72,0,0,1,.59.26.75.75,0,0,1,.13.64,1.15,1.15,0,0,1-.39.64,1,1,0,0,1-.68.26H84.2c-.14.53-.29,1.15-.45,1.87h3.84a.71.71,0,0,1,.73.89,1.08,1.08,0,0,1-.4.64,1.13,1.13,0,0,1-.7.26H83.38c-.19,1-.33,1.66-.43,2.06,1.76,0,3.23,0,4.41,0a.68.68,0,0,1,.57.26.75.75,0,0,1,.13.64,1.17,1.17,0,0,1-1.09.9Zm5.8,0-.91,0-1.07,0h-.1a.8.8,0,0,1-.41-.1.68.68,0,0,1-.35-.64.78.78,0,0,1,0-.19,1.62,1.62,0,0,1,.06-.19L90.49,13c.24-1.05.42-1.95.55-2.67s.25-1.47.35-2.19a1.17,1.17,0,0,1,.31-.64,1.18,1.18,0,0,1,.62-.35A1.3,1.3,0,0,1,92.79,7l1.59,0a4.88,4.88,0,0,1,2.73.61,1.93,1.93,0,0,1,.9,1.7,2.31,2.31,0,0,1-.37,1.25,1.66,1.66,0,0,1-.82.73,1.87,1.87,0,0,1,.89.67,1.85,1.85,0,0,1,.27,1,2.68,2.68,0,0,1-.35,1.39,3.8,3.8,0,0,1-1.24,1.17,6.44,6.44,0,0,1-3.1.84Zm.82-1.8a9.52,9.52,0,0,0,1.2-.11,2.54,2.54,0,0,0,.8-.29,1.34,1.34,0,0,0,.44-.39,1,1,0,0,0,.1-.55c0-.41-.36-.66-1-.74-.31,0-.73,0-1.26,0H92.38L92,14.52l.21,0h.16C93,14.57,93.39,14.57,93.59,14.56Zm.61-3.86a3.06,3.06,0,0,0,1.44-.31.81.81,0,0,0,.52-.7c0-.25-.17-.46-.49-.61a3,3,0,0,0-1.38-.25q-.72,0-1.2,0L93,9.4l-.21,1.21A12.13,12.13,0,0,0,94.2,10.7Zm12.34,5.71a3.51,3.51,0,0,1-2.3-.65,2.12,2.12,0,0,1-.77-1.7,1.7,1.7,0,0,1,.33-1.15,1,1,0,0,1,.79-.37.8.8,0,0,1,.52.18.56.56,0,0,1,.22.49s0,.18,0,.5l0,.26a.6.6,0,0,0,.36.5,2.29,2.29,0,0,0,1.09.21,2.37,2.37,0,0,0,.88-.16,1.82,1.82,0,0,0,.68-.41.77.77,0,0,0,.26-.55.64.64,0,0,0-.19-.44,1.77,1.77,0,0,0-.65-.4l-.51-.2-.48-.17-.54-.22c-1.3-.53-2-1.3-2-2.32a2.34,2.34,0,0,1,.5-1.45,3.68,3.68,0,0,1,1.34-1.08,4,4,0,0,1,1.77-.4,3.62,3.62,0,0,1,2.25.66A2.21,2.21,0,0,1,111,9.4a1.58,1.58,0,0,1-.27,1,.9.9,0,0,1-.73.34,1,1,0,0,1-.65-.21.7.7,0,0,1-.24-.56c0-.22,0-.38,0-.47a.54.54,0,0,0-.12-.27,1.32,1.32,0,0,0-.58-.4,2.35,2.35,0,0,0-.92-.2,1.7,1.7,0,0,0-1,.26.75.75,0,0,0-.37.61.63.63,0,0,0,.27.54,7.13,7.13,0,0,0,1.07.52,2.06,2.06,0,0,1,.31.13c.5.19.93.37,1.28.54a2.91,2.91,0,0,1,1.08.83,2,2,0,0,1,.35,1.2,2.5,2.5,0,0,1-.59,1.61A3.83,3.83,0,0,1,108.35,16,4.23,4.23,0,0,1,106.54,16.41Zm7.27-.92a1.21,1.21,0,0,1-.41.65,1.1,1.1,0,0,1-.7.26.7.7,0,0,1-.58-.26.74.74,0,0,1-.13-.65c.05-.26.3-1.52.76-3.79s.75-3.53.84-3.78A1,1,0,0,1,114,7.3a1.07,1.07,0,0,1,.7-.26h.2a11.75,11.75,0,0,1,2.52-.21,2.82,2.82,0,0,1,2.42,1.23,2.54,2.54,0,0,1,.32,1.84,2.81,2.81,0,0,1-1,1.63,4.59,4.59,0,0,1-1.46.88,5.82,5.82,0,0,1-1.63.35h-.57l-.7-.06-.47,0C114.12,14,113.93,14.91,113.81,15.49Zm2.61-4.55a2.87,2.87,0,0,0,1-.19,2.38,2.38,0,0,0,.73-.42,1.45,1.45,0,0,0,.18-.21.85.85,0,0,0,.06-.38,1,1,0,0,0-.14-.53,1.46,1.46,0,0,0-1.27-.56,8.1,8.1,0,0,0-1.72.12c-.13.58-.28,1.26-.45,2.06h0l.6.07.57,0Zm10.31,5.38c-1.28,0-3,0-5.24,0a.72.72,0,0,1-.44-.14.87.87,0,0,1-.25-.38.8.8,0,0,1,0-.51c.07-.3.33-1.52.77-3.66.32-1.56.62-2.79.9-3.68a1,1,0,0,1,.14-.31,1.24,1.24,0,0,1,.4-.42,1.16,1.16,0,0,1,.56-.18h2.56l2.57,0a.71.71,0,0,1,.58.26.75.75,0,0,1,.13.64,1.15,1.15,0,0,1-.39.64,1,1,0,0,1-.68.26H124c-.14.53-.29,1.15-.45,1.87h3.85a.68.68,0,0,1,.58.26.67.67,0,0,1,.14.63,1.08,1.08,0,0,1-.4.64,1.13,1.13,0,0,1-.7.26h-3.84c-.19,1-.33,1.66-.43,2.06,1.76,0,3.23,0,4.41,0a.68.68,0,0,1,.57.26.72.72,0,0,1,.13.64,1.17,1.17,0,0,1-1.09.9Zm9,0c-1.28,0-3,0-5.24,0a.72.72,0,0,1-.44-.14.87.87,0,0,1-.25-.38.8.8,0,0,1,0-.51c.07-.3.33-1.52.77-3.66.32-1.56.62-2.79.9-3.68a1,1,0,0,1,.14-.31,1.24,1.24,0,0,1,.4-.42,1.16,1.16,0,0,1,.56-.18h2.56l2.57,0a.71.71,0,0,1,.58.26.75.75,0,0,1,.13.64,1.15,1.15,0,0,1-.39.64,1,1,0,0,1-.68.26h-4.34c-.14.53-.29,1.15-.45,1.87h3.85a.68.68,0,0,1,.58.26.67.67,0,0,1,.14.63,1.08,1.08,0,0,1-.4.64,1.13,1.13,0,0,1-.7.26h-3.84c-.19,1-.33,1.66-.43,2.06,1.76,0,3.23,0,4.41,0a.68.68,0,0,1,.57.26.72.72,0,0,1,.13.64,1.17,1.17,0,0,1-1.09.9Zm3.69,0a.72.72,0,0,1-.69-.91l.78-3.74c.26-1.31.53-2.52.82-3.63a1.13,1.13,0,0,1,.42-.61,1.08,1.08,0,0,1,.71-.25,7.14,7.14,0,0,1,.77-.09c.37,0,.78,0,1.22,0a4.19,4.19,0,0,1,2.78.87,3.06,3.06,0,0,1,1.06,2.51,5.23,5.23,0,0,1-.63,2.46,7.73,7.73,0,0,1-1.58,2.09A4.73,4.73,0,0,1,143.27,16a6.49,6.49,0,0,1-2,.32C140.26,16.31,139.63,16.3,139.4,16.29Zm1.3-1.7h1a4.64,4.64,0,0,0,1.62-.35,3.13,3.13,0,0,0,1.11-.93A4.89,4.89,0,0,0,145.2,12a4,4,0,0,0,.25-1.3,1.77,1.77,0,0,0-.6-1.47,3.08,3.08,0,0,0-1.94-.48c-.29,0-.62,0-1,0l-.41,1.9L141,13C140.91,13.6,140.8,14.15,140.7,14.59Zm-68,17.7a4.51,4.51,0,0,1-2.1-.47,3.66,3.66,0,0,1-1.46-1.35,3.8,3.8,0,0,1-.53-2,5.49,5.49,0,0,1,.72-2.76,5.75,5.75,0,0,1,2-2.05,5.24,5.24,0,0,1,2.73-.75,2.44,2.44,0,0,1,1,.16l.32.1.51.17a2,2,0,0,1,.44.21,3.35,3.35,0,0,1,1.16,1.38,4.31,4.31,0,0,1,.42,1.93,5.3,5.3,0,0,1-.72,2.67,5.69,5.69,0,0,1-1.9,2A4.62,4.62,0,0,1,72.73,32.29Zm.3-1.75a2.73,2.73,0,0,0,1.56-.47,3.29,3.29,0,0,0,1.09-1.25,3.5,3.5,0,0,0,.41-1.64,3.23,3.23,0,0,0-.29-1.27,2,2,0,0,0-.69-.94,1.75,1.75,0,0,0-.57-.19l-.2-.05-.22-.07c-.22,0-.41,0-.57,0a2.6,2.6,0,0,0-1.53.49,3.29,3.29,0,0,0-1.13,1.29,3.6,3.6,0,0,0-.42,1.7,2.38,2.38,0,0,0,.66,1.81A2.78,2.78,0,0,0,73,30.54Zm7.75.95a1.19,1.19,0,0,1-.4.65,1.13,1.13,0,0,1-.71.26.71.71,0,0,1-.58-.26.78.78,0,0,1-.13-.65c.05-.26.31-1.52.77-3.79s.74-3.53.83-3.78A1.2,1.2,0,0,1,81.68,23h.19a11.75,11.75,0,0,1,2.52-.21,2.82,2.82,0,0,1,2.42,1.23,2.49,2.49,0,0,1,.33,1.84,2.87,2.87,0,0,1-1,1.63,4.75,4.75,0,0,1-1.47.88,5.82,5.82,0,0,1-1.63.35h-.57l-.7-.06-.47-.05C81.09,30,80.9,30.91,80.78,31.49Zm2.61-4.55a2.87,2.87,0,0,0,1-.19,2.26,2.26,0,0,0,.73-.42.77.77,0,0,0,.18-.21.82.82,0,0,0,.07-.38,1,1,0,0,0-.15-.53,1.45,1.45,0,0,0-1.27-.56,8.14,8.14,0,0,0-1.72.12c-.13.58-.28,1.26-.45,2.06h0l.6.07.57,0Zm7.87,4.47a1.17,1.17,0,0,1-.42.64,1,1,0,0,1-.68.26.72.72,0,0,1-.71-.93c.06-.27.32-1.49.77-3.68.23-1.11.45-2.09.66-2.92H89.13a.76.76,0,0,1-.6-.25.69.69,0,0,1-.14-.62,1,1,0,0,1,.39-.62,1.05,1.05,0,0,1,.7-.26l2.76,0H95a.72.72,0,0,1,.59.25.67.67,0,0,1,.14.61,1.07,1.07,0,0,1-.39.64,1.05,1.05,0,0,1-.68.26h-2c-.2.8-.43,1.77-.66,2.91Q91.37,31,91.26,31.41Zm4.75.93a.75.75,0,0,1-.59-.24.76.76,0,0,1-.16-.64,1.19,1.19,0,0,1,.35-.6,1,1,0,0,1,.6-.32q.5-2.26,1.21-5.74a.68.68,0,0,1-.46-.31.76.76,0,0,1-.08-.58A1.19,1.19,0,0,1,98,23h1.47a.64.64,0,0,1,.57.28.76.76,0,0,1,.13.65,1.07,1.07,0,0,1-.34.57,1.16,1.16,0,0,1-.6.31Q98.53,28.25,98,30.5a.62.62,0,0,1,.47.3.78.78,0,0,1,.12.57,1.26,1.26,0,0,1-.39.65,1.12,1.12,0,0,1-.69.29Zm13.86-.91a1.07,1.07,0,0,1-.43.64,1,1,0,0,1-.7.25.73.73,0,0,1-.57-.29.7.7,0,0,1-.1-.65c.13-.56.47-2.23,1-5-.81.81-1.63,1.67-2.44,2.59a1.21,1.21,0,0,1-.68.39.76.76,0,0,1-.63-.15.1.1,0,0,1-.06,0,.7.7,0,0,1-.2-.22l-1.46-2.52s-.18.85-.53,2.5-.53,2.46-.54,2.47a1.13,1.13,0,0,1-.4.65,1.08,1.08,0,0,1-.69.26.76.76,0,0,1-.6-.26.81.81,0,0,1-.13-.65c.08-.37.21-1,.39-1.84s.34-1.52.43-2,.22-1.05.35-1.74.23-1.25.33-1.91a1.08,1.08,0,0,1,.35-.66,1.09,1.09,0,0,1,.7-.31.67.67,0,0,1,.35.05.62.62,0,0,1,.51.35L106.26,27a48.93,48.93,0,0,1,3.6-3.51,1.07,1.07,0,0,1,.9-.46.67.67,0,0,1,.57.29.73.73,0,0,1,.12.65q-.3,1.23-.81,3.78C110.31,29.42,110.06,30.65,109.87,31.43Zm2.8.91a.77.77,0,0,1-.6-.24.76.76,0,0,1-.16-.64,1.19,1.19,0,0,1,.35-.6,1,1,0,0,1,.6-.32q.49-2.26,1.21-5.74a.68.68,0,0,1-.46-.31.71.71,0,0,1-.07-.58,1.05,1.05,0,0,1,.4-.64,1.13,1.13,0,0,1,.7-.26h1.47a.64.64,0,0,1,.57.28.76.76,0,0,1,.13.65,1,1,0,0,1-.34.57,1.17,1.17,0,0,1-.59.31q-.69,3.42-1.19,5.67a.62.62,0,0,1,.47.3.78.78,0,0,1,.12.57,1.14,1.14,0,0,1-.39.65,1.12,1.12,0,0,1-.69.29Zm7.42,0c-1.18,0-2.14,0-2.9-.06a.63.63,0,0,1-.53-.28.78.78,0,0,1-.09-.64,1.09,1.09,0,0,1,.43-.62c.3-.28.82-.8,1.55-1.56q3.95-3.62,4.51-4.35c-1.89,0-3.27,0-4.12,0a.68.68,0,0,1-.55-.3.8.8,0,0,1-.07-.65,1.06,1.06,0,0,1,.42-.61,1,1,0,0,1,.68-.23c.56,0,1.14.06,1.75.07s1.32,0,2.11,0l1.78,0a.65.65,0,0,1,.54.26.68.68,0,0,1,.13.62,1.22,1.22,0,0,1-.32.59.35.35,0,0,0,0,.08,10.8,10.8,0,0,1-1.25,1.56c-.43.43-1.89,1.79-4.41,4.08l-.32.32,1,0,3-.05a.64.64,0,0,1,.55.26.74.74,0,0,1,.13.62,1.15,1.15,0,0,1-.39.61,1,1,0,0,1-.67.26Zm4.81-.54a.78.78,0,0,1,.13-.69l4.51-7.37A1.26,1.26,0,0,1,130.6,23a.85.85,0,0,1,.59.19.89.89,0,0,1,.29.52l.36,2.21.43,2.8.38,2.34a1,1,0,0,1-.1.62,1.11,1.11,0,0,1-.37.46.85.85,0,0,1-.48.17.69.69,0,0,1-.77-.56l-.31-2-2.89.07-1.13,1.93a1.26,1.26,0,0,1-.44.42,1.13,1.13,0,0,1-.53.14.78.78,0,0,1-.46-.14A.68.68,0,0,1,124.9,31.77ZM130.33,28l-.26-1.88-1.23,1.91Zm6.27,3.37a1.17,1.17,0,0,1-.42.64,1.08,1.08,0,0,1-.69.26.73.73,0,0,1-.58-.28.73.73,0,0,1-.12-.65c.06-.27.32-1.49.77-3.68.22-1.11.44-2.09.66-2.92h-1.75a.76.76,0,0,1-.6-.25.69.69,0,0,1-.14-.62,1,1,0,0,1,.39-.62,1.05,1.05,0,0,1,.7-.26l2.75,0h2.76a.69.69,0,0,1,.58.25.64.64,0,0,1,.15.61,1.18,1.18,0,0,1-.39.64,1.07,1.07,0,0,1-.68.26h-2q-.31,1.2-.66,2.91Q136.71,31,136.6,31.41Zm4.75.93a.78.78,0,0,1-.6-.24.75.75,0,0,1-.15-.64,1.19,1.19,0,0,1,.35-.6,1,1,0,0,1,.6-.32q.49-2.26,1.21-5.74a.66.66,0,0,1-.46-.31.76.76,0,0,1-.08-.58,1.07,1.07,0,0,1,.41-.64,1.1,1.1,0,0,1,.7-.26h1.47a.64.64,0,0,1,.57.28.76.76,0,0,1,.13.65,1.07,1.07,0,0,1-.34.57,1.16,1.16,0,0,1-.6.31q-.69,3.42-1.18,5.67a.64.64,0,0,1,.47.3.74.74,0,0,1,.11.57,1.14,1.14,0,0,1-.39.65,1.07,1.07,0,0,1-.68.29Zm8.91-.05a4.58,4.58,0,0,1-2.11-.47,3.63,3.63,0,0,1-1.45-1.35,3.8,3.8,0,0,1-.54-2,5.5,5.5,0,0,1,.73-2.76,5.75,5.75,0,0,1,2-2.05,5.24,5.24,0,0,1,2.73-.75,2.44,2.44,0,0,1,1,.16l.32.1.51.17a2,2,0,0,1,.44.21A3.43,3.43,0,0,1,155,24.9a4.31,4.31,0,0,1,.41,1.93,5.29,5.29,0,0,1-.71,2.67,5.69,5.69,0,0,1-1.9,2A4.62,4.62,0,0,1,150.26,32.29Zm.3-1.75a2.73,2.73,0,0,0,1.56-.47,3.29,3.29,0,0,0,1.09-1.25,3.49,3.49,0,0,0,.4-1.64,3.21,3.21,0,0,0-.28-1.27,2,2,0,0,0-.69-.94,2,2,0,0,0-.57-.19l-.2-.05-.22-.07c-.22,0-.42,0-.57,0a2.66,2.66,0,0,0-1.54.49,3.46,3.46,0,0,0-1.13,1.29,3.71,3.71,0,0,0-.41,1.7,2.38,2.38,0,0,0,.66,1.81A2.76,2.76,0,0,0,150.56,30.54Zm12.62,1.71a.71.71,0,0,1-.78-.31,24.39,24.39,0,0,1-1.54-3c-.67-1.36-1.16-2.28-1.46-2.77q-.09.53-.42,2.31c-.21,1.19-.41,2.18-.58,3a1.16,1.16,0,0,1-1.11.91.71.71,0,0,1-.58-.26.77.77,0,0,1-.13-.65c.16-.76.4-2,.71-3.69s.58-3,.81-3.88a1.11,1.11,0,0,1,.42-.63,1,1,0,0,1,.7-.25,1,1,0,0,1,.34.08.66.66,0,0,1,.36.28l.53.87.56.89a21,21,0,0,1,1.56,2.78l.44.9c.45-2,.8-3.65,1.06-4.9a1.16,1.16,0,0,1,1.09-.91.67.67,0,0,1,.58.24.79.79,0,0,1,.15.64c-.25,1.18-.79,3.69-1.64,7.53a1.18,1.18,0,0,1-.39.62A1.16,1.16,0,0,1,163.18,32.25Z"/></g></g></svg>